<svg xmlns="http://www.w3.org/2000/svg" width="40" height="40" viewBox="0 0 40 40" fill="none">
<g clip-path="url(#clip0_1_6387)">
<path d="M20 20C25.3503 20 29.6875 15.6628 29.6875 10.3125C29.6875 4.96224 25.3503 0.625 20 0.625C14.6497 0.625 10.3125 4.96224 10.3125 10.3125C10.3125 15.6628 14.6497 20 20 20Z" fill="#FFE0B2"/>
<path d="M20 20.625C14.3125 20.625 9.6875 16 9.6875 10.3125C9.6875 4.625 14.3125 0 20 0C25.6875 0 30.3125 4.625 30.3125 10.3125C30.3125 16 25.6875 20.625 20 20.625ZM20 1.25C15 1.25 10.9375 5.3125 10.9375 10.3125C10.9375 15.3125 15 19.375 20 19.375C25 19.375 29.0625 15.3125 29.0625 10.3125C29.0625 5.3125 25 1.25 20 1.25Z" fill="#424242"/>
<path d="M39.375 39.375C39.375 28.6875 30.6875 20 20 20C9.3125 20 0.625 28.6875 0.625 39.375H39.375Z" fill="#90CAF9"/>
<path d="M39.375 40H0.625C0.28125 40 0 39.7188 0 39.375C0 31.2813 4.84375 24.2812 11.7813 21.1562C14.2813 20.0312 17.0937 19.375 20 19.375C22.0625 19.375 24.0625 19.6875 25.9375 20.2813C34.0625 22.8125 40 30.4062 40 39.375C40 39.7188 39.7188 40 39.375 40ZM1.25 38.75H20H38.75C38.5625 32.6875 35.4687 27.375 30.8437 24.0937C28.9375 22.7187 26.75 21.7187 24.4062 21.1562C22.9687 20.8125 21.5 20.625 20 20.625C18.1562 20.625 16.375 20.9063 14.6875 21.375C13.125 21.8438 11.6563 22.5 10.3125 23.3125C5.0625 26.5 1.46875 32.2188 1.25 38.75Z" fill="#424242"/>
</g>
<defs>
<clipPath id="clip0_1_6387">
<rect width="40" height="40" fill="white"/>
</clipPath>
</defs>
</svg>